<?xml version="1.0" encoding="UTF-8" standalone="no"?>
<!DOCTYPE svg PUBLIC "-//W3C//DTD SVG 1.1//EN"
 "http://www.w3.org/Graphics/SVG/1.1/DTD/svg11.dtd">
<!-- Generated by graphviz version 2.38.0 (20140413.2041)
 -->
<!-- Title: snakemake_dag Pages: 1 -->
<svg width="1051pt" height="620pt"
 viewBox="0.00 0.00 1050.76 620.00" xmlns="http://www.w3.org/2000/svg" xmlns:xlink="http://www.w3.org/1999/xlink">
<g id="graph0" class="graph" transform="scale(1 1) rotate(0) translate(4 616)">
<title>snakemake_dag</title>
<polygon fill="white" stroke="none" points="-4,4 -4,-616 1046.76,-616 1046.76,4 -4,4"/>
<!-- 0 -->
<g id="node1" class="node"><title>0</title>
<path fill="none" stroke="#78d856" stroke-width="2" d="M560,-36C560,-36 488,-36 488,-36 482,-36 476,-30 476,-24 476,-24 476,-12 476,-12 476,-6 482,-0 488,-0 488,-0 560,-0 560,-0 566,-0 572,-6 572,-12 572,-12 572,-24 572,-24 572,-30 566,-36 560,-36"/>
<text text-anchor="middle" x="524" y="-15.5" font-family="sans" font-size="10.00">make_summary</text>
</g>
<!-- 1 -->
<g id="node2" class="node"><title>1</title>
<path fill="none" stroke="#56d863" stroke-width="2" d="M84,-108C84,-108 12,-108 12,-108 6,-108 0,-102 0,-96 0,-96 0,-84 0,-84 0,-78 6,-72 12,-72 12,-72 84,-72 84,-72 90,-72 96,-78 96,-84 96,-84 96,-96 96,-96 96,-102 90,-108 84,-108"/>
<text text-anchor="middle" x="48" y="-87.5" font-family="sans" font-size="10.00">make_rulegraph</text>
</g>
<!-- 1&#45;&gt;0 -->
<g id="edge14" class="edge"><title>1&#45;&gt;0</title>
<path fill="none" stroke="grey" stroke-width="2" d="M96.2436,-75.0682C100.873,-73.944 105.513,-72.8978 110,-72 235.461,-46.898 384.806,-31.2095 465.402,-23.8908"/>
<polygon fill="grey" stroke="grey" stroke-width="2" points="466.186,-27.3346 475.834,-22.9555 465.561,-20.3626 466.186,-27.3346"/>
</g>
<!-- 2 -->
<g id="node3" class="node"><title>2</title>
<path fill="none" stroke="#56b9d8" stroke-width="2" d="M222.5,-612C222.5,-612 109.5,-612 109.5,-612 103.5,-612 97.5,-606 97.5,-600 97.5,-600 97.5,-588 97.5,-588 97.5,-582 103.5,-576 109.5,-576 109.5,-576 222.5,-576 222.5,-576 228.5,-576 234.5,-582 234.5,-588 234.5,-588 234.5,-600 234.5,-600 234.5,-606 228.5,-612 222.5,-612"/>
<text text-anchor="middle" x="166" y="-591.5" font-family="sans" font-size="10.00">get_codon_variant_table</text>
</g>
<!-- 2&#45;&gt;0 -->
<g id="edge11" class="edge"><title>2&#45;&gt;0</title>
<path fill="none" stroke="grey" stroke-width="2" d="M157.501,-575.993C145.228,-549.822 124,-497.79 124,-451 124,-451 124,-451 124,-161 124,-114.266 140.935,-97.6514 180,-72 225.929,-41.8417 380.2,-27.7852 465.708,-22.1728"/>
<polygon fill="grey" stroke="grey" stroke-width="2" points="466.026,-25.6597 475.783,-21.5297 465.58,-18.6739 466.026,-25.6597"/>
</g>
<!-- 3 -->
<g id="node4" class="node"><title>3</title>
<path fill="none" stroke="#d8d356" stroke-width="2" d="M298.5,-468C298.5,-468 179.5,-468 179.5,-468 173.5,-468 167.5,-462 167.5,-456 167.5,-456 167.5,-444 167.5,-444 167.5,-438 173.5,-432 179.5,-432 179.5,-432 298.5,-432 298.5,-432 304.5,-432 310.5,-438 310.5,-444 310.5,-444 310.5,-456 310.5,-456 310.5,-462 304.5,-468 298.5,-468"/>
<text text-anchor="middle" x="239" y="-447.5" font-family="sans" font-size="10.00">aggregate_variant_counts</text>
</g>
<!-- 2&#45;&gt;3 -->
<g id="edge17" class="edge"><title>2&#45;&gt;3</title>
<path fill="none" stroke="grey" stroke-width="2" d="M166.736,-575.918C168.18,-557.215 172.444,-526.846 185,-504 190.921,-493.226 199.73,-483.247 208.523,-474.921"/>
<polygon fill="grey" stroke="grey" stroke-width="2" points="211.072,-477.336 216.174,-468.051 206.395,-472.128 211.072,-477.336"/>
</g>
<!-- 16 -->
<g id="node17" class="node"><title>16</title>
<path fill="none" stroke="#d85656" stroke-width="2" d="M271.5,-540C271.5,-540 206.5,-540 206.5,-540 200.5,-540 194.5,-534 194.5,-528 194.5,-528 194.5,-516 194.5,-516 194.5,-510 200.5,-504 206.5,-504 206.5,-504 271.5,-504 271.5,-504 277.5,-504 283.5,-510 283.5,-516 283.5,-516 283.5,-528 283.5,-528 283.5,-534 277.5,-540 271.5,-540"/>
<text text-anchor="middle" x="239" y="-519.5" font-family="sans" font-size="10.00">count_variants</text>
</g>
<!-- 2&#45;&gt;16 -->
<g id="edge36" class="edge"><title>2&#45;&gt;16</title>
<path fill="none" stroke="grey" stroke-width="2" d="M184.045,-575.697C193.062,-567.05 204.118,-556.449 213.943,-547.027"/>
<polygon fill="grey" stroke="grey" stroke-width="2" points="216.367,-549.552 221.163,-540.104 211.522,-544.499 216.367,-549.552"/>
</g>
<!-- 3&#45;&gt;0 -->
<g id="edge5" class="edge"><title>3&#45;&gt;0</title>
<path fill="none" stroke="grey" stroke-width="2" d="M222.292,-431.812C199.646,-406.622 162,-357.199 162,-307 162,-307 162,-307 162,-161 162,-107.515 196.306,-98.0832 243,-72 312.814,-33.0021 406.022,-22.097 465.545,-19.3716"/>
<polygon fill="grey" stroke="grey" stroke-width="2" points="466.036,-22.8551 475.89,-18.9649 465.761,-15.8605 466.036,-22.8551"/>
</g>
<!-- 4 -->
<g id="node5" class="node"><title>4</title>
<path fill="none" stroke="#56d892" stroke-width="2" d="M297.5,-324C297.5,-324 202.5,-324 202.5,-324 196.5,-324 190.5,-318 190.5,-312 190.5,-312 190.5,-300 190.5,-300 190.5,-294 196.5,-288 202.5,-288 202.5,-288 297.5,-288 297.5,-288 303.5,-288 309.5,-294 309.5,-300 309.5,-300 309.5,-312 309.5,-312 309.5,-318 303.5,-324 297.5,-324"/>
<text text-anchor="middle" x="250" y="-303.5" font-family="sans" font-size="10.00">counts_to_cells_ratio</text>
</g>
<!-- 3&#45;&gt;4 -->
<g id="edge18" class="edge"><title>3&#45;&gt;4</title>
<path fill="none" stroke="grey" stroke-width="2" d="M240.327,-431.871C242.202,-407.67 245.646,-363.211 247.878,-334.393"/>
<polygon fill="grey" stroke="grey" stroke-width="2" points="251.386,-334.43 248.668,-324.189 244.406,-333.889 251.386,-334.43"/>
</g>
<!-- 5 -->
<g id="node6" class="node"><title>5</title>
<path fill="none" stroke="#568ad8" stroke-width="2" d="M593.5,-396C593.5,-396 516.5,-396 516.5,-396 510.5,-396 504.5,-390 504.5,-384 504.5,-384 504.5,-372 504.5,-372 504.5,-366 510.5,-360 516.5,-360 516.5,-360 593.5,-360 593.5,-360 599.5,-360 605.5,-366 605.5,-372 605.5,-372 605.5,-384 605.5,-384 605.5,-390 599.5,-396 593.5,-396"/>
<text text-anchor="middle" x="555" y="-375.5" font-family="sans" font-size="10.00">counts_to_scores</text>
</g>
<!-- 3&#45;&gt;5 -->
<g id="edge20" class="edge"><title>3&#45;&gt;5</title>
<path fill="none" stroke="grey" stroke-width="2" d="M310.705,-433.116C366.132,-420.838 441.997,-404.032 494.41,-392.422"/>
<polygon fill="grey" stroke="grey" stroke-width="2" points="495.234,-395.824 504.24,-390.244 493.72,-388.99 495.234,-395.824"/>
</g>
<!-- 4&#45;&gt;0 -->
<g id="edge9" class="edge"><title>4&#45;&gt;0</title>
<path fill="none" stroke="grey" stroke-width="2" d="M239.822,-287.589C223.367,-256.973 195.062,-192.179 219,-144 263.626,-54.1833 390.096,-28.759 465.434,-21.656"/>
<polygon fill="grey" stroke="grey" stroke-width="2" points="466.049,-25.1161 475.712,-20.7705 465.448,-18.1419 466.049,-25.1161"/>
</g>
<!-- 5&#45;&gt;0 -->
<g id="edge13" class="edge"><title>5&#45;&gt;0</title>
<path fill="none" stroke="grey" stroke-width="2" d="M605.531,-373.005C729.752,-361.799 1040,-324.82 1040,-235 1040,-235 1040,-235 1040,-161 1040,-120.553 1051.05,-99.0737 1021,-72 988.942,-43.1168 706.659,-27.1208 582.347,-21.4227"/>
<polygon fill="grey" stroke="grey" stroke-width="2" points="582.395,-17.9213 572.247,-20.9665 582.079,-24.9142 582.395,-17.9213"/>
</g>
<!-- 6 -->
<g id="node7" class="node"><title>6</title>
<path fill="none" stroke="#d88556" stroke-width="2" d="M610.5,-324C610.5,-324 507.5,-324 507.5,-324 501.5,-324 495.5,-318 495.5,-312 495.5,-312 495.5,-300 495.5,-300 495.5,-294 501.5,-288 507.5,-288 507.5,-288 610.5,-288 610.5,-288 616.5,-288 622.5,-294 622.5,-300 622.5,-300 622.5,-312 622.5,-312 622.5,-318 616.5,-324 610.5,-324"/>
<text text-anchor="middle" x="559" y="-303.5" font-family="sans" font-size="10.00">scores_to_frac_escape</text>
</g>
<!-- 5&#45;&gt;6 -->
<g id="edge23" class="edge"><title>5&#45;&gt;6</title>
<path fill="none" stroke="grey" stroke-width="2" d="M555.989,-359.697C556.43,-351.983 556.959,-342.712 557.451,-334.112"/>
<polygon fill="grey" stroke="grey" stroke-width="2" points="560.946,-334.288 558.023,-324.104 553.958,-333.888 560.946,-334.288"/>
</g>
<!-- 6&#45;&gt;0 -->
<g id="edge10" class="edge"><title>6&#45;&gt;0</title>
<path fill="none" stroke="grey" stroke-width="2" d="M622.83,-303.968C707.553,-301.091 850.291,-290.494 883,-252 893.36,-239.807 888.598,-230.989 883,-216 853.348,-136.607 830.719,-115.524 758,-72 703.944,-39.6467 632.086,-27.0227 582.327,-22.1086"/>
<polygon fill="grey" stroke="grey" stroke-width="2" points="582.336,-18.5949 572.059,-21.1726 581.7,-25.566 582.336,-18.5949"/>
</g>
<!-- 7 -->
<g id="node8" class="node"><title>7</title>
<path fill="none" stroke="#97d856" stroke-width="2" d="M568,-252C568,-252 454,-252 454,-252 448,-252 442,-246 442,-240 442,-240 442,-228 442,-228 442,-222 448,-216 454,-216 454,-216 568,-216 568,-216 574,-216 580,-222 580,-228 580,-228 580,-240 580,-240 580,-246 574,-252 568,-252"/>
<text text-anchor="middle" x="511" y="-231.5" font-family="sans" font-size="10.00">call_strong_escape_sites</text>
</g>
<!-- 6&#45;&gt;7 -->
<g id="edge24" class="edge"><title>6&#45;&gt;7</title>
<path fill="none" stroke="grey" stroke-width="2" d="M547.135,-287.697C541.497,-279.474 534.646,-269.483 528.431,-260.421"/>
<polygon fill="grey" stroke="grey" stroke-width="2" points="531.271,-258.372 522.729,-252.104 525.497,-262.331 531.271,-258.372"/>
</g>
<!-- 8 -->
<g id="node9" class="node"><title>8</title>
<path fill="none" stroke="#5673d8" stroke-width="2" d="M484,-180C484,-180 416,-180 416,-180 410,-180 404,-174 404,-168 404,-168 404,-156 404,-156 404,-150 410,-144 416,-144 416,-144 484,-144 484,-144 490,-144 496,-150 496,-156 496,-156 496,-168 496,-168 496,-174 490,-180 484,-180"/>
<text text-anchor="middle" x="450" y="-159.5" font-family="sans" font-size="10.00">escape_profiles</text>
</g>
<!-- 6&#45;&gt;8 -->
<g id="edge25" class="edge"><title>6&#45;&gt;8</title>
<path fill="none" stroke="grey" stroke-width="2" d="M495.244,-293.64C471.594,-286 447.115,-273.251 433,-252 420.696,-233.477 427.164,-208.273 435.424,-189.415"/>
<polygon fill="grey" stroke="grey" stroke-width="2" points="438.673,-190.733 439.817,-180.2 432.354,-187.721 438.673,-190.733"/>
</g>
<!-- 9 -->
<g id="node10" class="node"><title>9</title>
<path fill="none" stroke="#61d856" stroke-width="2" d="M335.5,-180C335.5,-180 240.5,-180 240.5,-180 234.5,-180 228.5,-174 228.5,-168 228.5,-168 228.5,-156 228.5,-156 228.5,-150 234.5,-144 240.5,-144 240.5,-144 335.5,-144 335.5,-144 341.5,-144 347.5,-150 347.5,-156 347.5,-156 347.5,-168 347.5,-168 347.5,-174 341.5,-180 335.5,-180"/>
<text text-anchor="middle" x="288" y="-159.5" font-family="sans" font-size="10.00">mds_escape_profiles</text>
</g>
<!-- 6&#45;&gt;9 -->
<g id="edge28" class="edge"><title>6&#45;&gt;9</title>
<path fill="none" stroke="grey" stroke-width="2" d="M495.098,-297.888C454.448,-291.03 402.106,-277.706 362,-252 337.059,-236.014 316.304,-208.925 303.184,-188.823"/>
<polygon fill="grey" stroke="grey" stroke-width="2" points="306.003,-186.731 297.705,-180.143 300.083,-190.467 306.003,-186.731"/>
</g>
<!-- 10 -->
<g id="node11" class="node"><title>10</title>
<path fill="none" stroke="#afd856" stroke-width="2" d="M741.5,-180C741.5,-180 688.5,-180 688.5,-180 682.5,-180 676.5,-174 676.5,-168 676.5,-168 676.5,-156 676.5,-156 676.5,-150 682.5,-144 688.5,-144 688.5,-144 741.5,-144 741.5,-144 747.5,-144 753.5,-150 753.5,-156 753.5,-156 753.5,-168 753.5,-168 753.5,-174 747.5,-180 741.5,-180"/>
<text text-anchor="middle" x="715" y="-159.5" font-family="sans" font-size="10.00">output_pdbs</text>
</g>
<!-- 6&#45;&gt;10 -->
<g id="edge29" class="edge"><title>6&#45;&gt;10</title>
<path fill="none" stroke="grey" stroke-width="2" d="M577.817,-287.871C605.459,-262.711 657.155,-215.654 688.588,-187.042"/>
<polygon fill="grey" stroke="grey" stroke-width="2" points="691.077,-189.509 696.116,-180.189 686.365,-184.332 691.077,-189.509"/>
</g>
<!-- 11 -->
<g id="node12" class="node"><title>11</title>
<path fill="none" stroke="#c6d856" stroke-width="2" d="M646,-180C646,-180 564,-180 564,-180 558,-180 552,-174 552,-168 552,-168 552,-156 552,-156 552,-150 558,-144 564,-144 564,-144 646,-144 646,-144 652,-144 658,-150 658,-156 658,-156 658,-168 658,-168 658,-174 652,-180 646,-180"/>
<text text-anchor="middle" x="605" y="-159.5" font-family="sans" font-size="10.00">natural_mutations</text>
</g>
<!-- 6&#45;&gt;11 -->
<g id="edge30" class="edge"><title>6&#45;&gt;11</title>
<path fill="none" stroke="grey" stroke-width="2" d="M570.852,-287.573C577.138,-277.566 584.476,-264.531 589,-252 596.23,-231.974 600.29,-208.188 602.51,-190.246"/>
<polygon fill="grey" stroke="grey" stroke-width="2" points="606.003,-190.502 603.64,-180.174 599.047,-189.721 606.003,-190.502"/>
</g>
<!-- 12 -->
<g id="node13" class="node"><title>12</title>
<path fill="none" stroke="#56d0d8" stroke-width="2" d="M761.5,-252C761.5,-252 686.5,-252 686.5,-252 680.5,-252 674.5,-246 674.5,-240 674.5,-240 674.5,-228 674.5,-228 674.5,-222 680.5,-216 686.5,-216 686.5,-216 761.5,-216 761.5,-216 767.5,-216 773.5,-222 773.5,-228 773.5,-228 773.5,-240 773.5,-240 773.5,-246 767.5,-252 761.5,-252"/>
<text text-anchor="middle" x="724" y="-231.5" font-family="sans" font-size="10.00">homolog_escape</text>
</g>
<!-- 6&#45;&gt;12 -->
<g id="edge32" class="edge"><title>6&#45;&gt;12</title>
<path fill="none" stroke="grey" stroke-width="2" d="M599.364,-287.876C622.02,-278.264 650.473,-266.193 674.47,-256.013"/>
<polygon fill="grey" stroke="grey" stroke-width="2" points="675.929,-259.196 683.768,-252.068 673.195,-252.752 675.929,-259.196"/>
</g>
<!-- 13 -->
<g id="node14" class="node"><title>13</title>
<path fill="none" stroke="#56d87b" stroke-width="2" d="M446,-108C446,-108 370,-108 370,-108 364,-108 358,-102 358,-96 358,-96 358,-84 358,-84 358,-78 364,-72 370,-72 370,-72 446,-72 446,-72 452,-72 458,-78 458,-84 458,-84 458,-96 458,-96 458,-102 452,-108 446,-108"/>
<text text-anchor="middle" x="408" y="-87.5" font-family="sans" font-size="10.00">make_supp_data</text>
</g>
<!-- 6&#45;&gt;13 -->
<g id="edge33" class="edge"><title>6&#45;&gt;13</title>
<path fill="none" stroke="grey" stroke-width="2" d="M495.284,-291.97C470.078,-284.047 442.524,-271.538 423,-252 387.949,-216.924 389.051,-193.229 395,-144 396.023,-135.535 397.933,-126.471 399.981,-118.276"/>
<polygon fill="grey" stroke="grey" stroke-width="2" points="403.401,-119.034 402.591,-108.471 396.636,-117.234 403.401,-119.034"/>
</g>
<!-- 15 -->
<g id="node16" class="node"><title>15</title>
<path fill="none" stroke="#d86e56" stroke-width="2" d="M862,-252C862,-252 804,-252 804,-252 798,-252 792,-246 792,-240 792,-240 792,-228 792,-228 792,-222 798,-216 804,-216 804,-216 862,-216 862,-216 868,-216 874,-222 874,-228 874,-228 874,-240 874,-240 874,-246 868,-252 862,-252"/>
<text text-anchor="middle" x="833" y="-231.5" font-family="sans" font-size="10.00">custom_plots</text>
</g>
<!-- 6&#45;&gt;15 -->
<g id="edge35" class="edge"><title>6&#45;&gt;15</title>
<path fill="none" stroke="grey" stroke-width="2" d="M622.828,-291.405C667.631,-281.478 728.804,-267.156 782,-252 782.101,-251.971 782.202,-251.942 782.303,-251.913"/>
<polygon fill="grey" stroke="grey" stroke-width="2" points="783.321,-255.262 791.901,-249.046 781.318,-248.555 783.321,-255.262"/>
</g>
<!-- 7&#45;&gt;0 -->
<g id="edge7" class="edge"><title>7&#45;&gt;0</title>
<path fill="none" stroke="grey" stroke-width="2" d="M512.042,-215.849C514.291,-178.832 519.615,-91.1809 522.336,-46.3863"/>
<polygon fill="grey" stroke="grey" stroke-width="2" points="525.84,-46.4263 522.953,-36.2325 518.853,-46.0018 525.84,-46.4263"/>
</g>
<!-- 7&#45;&gt;8 -->
<g id="edge27" class="edge"><title>7&#45;&gt;8</title>
<path fill="none" stroke="grey" stroke-width="2" d="M495.921,-215.697C488.608,-207.305 479.69,-197.07 471.665,-187.861"/>
<polygon fill="grey" stroke="grey" stroke-width="2" points="474.114,-185.344 464.905,-180.104 468.836,-189.943 474.114,-185.344"/>
</g>
<!-- 7&#45;&gt;11 -->
<g id="edge31" class="edge"><title>7&#45;&gt;11</title>
<path fill="none" stroke="grey" stroke-width="2" d="M534.236,-215.697C546.188,-206.796 560.923,-195.823 573.847,-186.199"/>
<polygon fill="grey" stroke="grey" stroke-width="2" points="576.101,-188.884 582.031,-180.104 571.92,-183.27 576.101,-188.884"/>
</g>
<!-- 8&#45;&gt;0 -->
<g id="edge15" class="edge"><title>8&#45;&gt;0</title>
<path fill="none" stroke="grey" stroke-width="2" d="M458.926,-143.871C471.705,-119.35 495.321,-74.0321 510.316,-45.2589"/>
<polygon fill="grey" stroke="grey" stroke-width="2" points="513.525,-46.6749 515.042,-36.1893 507.317,-43.4398 513.525,-46.6749"/>
</g>
<!-- 8&#45;&gt;13 -->
<g id="edge34" class="edge"><title>8&#45;&gt;13</title>
<path fill="none" stroke="grey" stroke-width="2" d="M439.618,-143.697C434.735,-135.559 428.813,-125.689 423.421,-116.701"/>
<polygon fill="grey" stroke="grey" stroke-width="2" points="426.409,-114.879 418.263,-108.104 420.406,-118.48 426.409,-114.879"/>
</g>
<!-- 9&#45;&gt;0 -->
<g id="edge8" class="edge"><title>9&#45;&gt;0</title>
<path fill="none" stroke="grey" stroke-width="2" d="M295.328,-143.986C304.837,-123.887 323.306,-90.8129 349,-72 383.298,-46.8869 429.598,-33.5446 465.959,-26.5302"/>
<polygon fill="grey" stroke="grey" stroke-width="2" points="466.721,-29.9491 475.933,-24.7151 465.468,-23.0622 466.721,-29.9491"/>
</g>
<!-- 10&#45;&gt;0 -->
<g id="edge6" class="edge"><title>10&#45;&gt;0</title>
<path fill="none" stroke="grey" stroke-width="2" d="M691.961,-143.871C657.831,-118.497 593.748,-70.8544 555.365,-42.3181"/>
<polygon fill="grey" stroke="grey" stroke-width="2" points="557.234,-39.3468 547.121,-36.1893 553.058,-44.9644 557.234,-39.3468"/>
</g>
<!-- 11&#45;&gt;0 -->
<g id="edge1" class="edge"><title>11&#45;&gt;0</title>
<path fill="none" stroke="grey" stroke-width="2" d="M595.23,-143.871C581.181,-119.244 555.167,-73.6377 538.765,-44.8845"/>
<polygon fill="grey" stroke="grey" stroke-width="2" points="541.8,-43.1413 533.805,-36.1893 535.72,-46.6097 541.8,-43.1413"/>
</g>
<!-- 12&#45;&gt;0 -->
<g id="edge3" class="edge"><title>12&#45;&gt;0</title>
<path fill="none" stroke="grey" stroke-width="2" d="M740.585,-215.994C756.403,-197.621 775.91,-167.784 762,-144 724.047,-79.1055 639.628,-46.3873 582.244,-31.0462"/>
<polygon fill="grey" stroke="grey" stroke-width="2" points="582.772,-27.5683 572.216,-28.4677 581.029,-34.3478 582.772,-27.5683"/>
</g>
<!-- 13&#45;&gt;0 -->
<g id="edge2" class="edge"><title>13&#45;&gt;0</title>
<path fill="none" stroke="grey" stroke-width="2" d="M436.377,-71.8761C451.544,-62.7236 470.405,-51.3417 486.739,-41.485"/>
<polygon fill="grey" stroke="grey" stroke-width="2" points="488.761,-44.3531 495.514,-36.1898 485.144,-38.3598 488.761,-44.3531"/>
</g>
<!-- 14 -->
<g id="node15" class="node"><title>14</title>
<path fill="none" stroke="#d8bc56" stroke-width="2" d="M1000,-108C1000,-108 914,-108 914,-108 908,-108 902,-102 902,-96 902,-96 902,-84 902,-84 902,-78 908,-72 914,-72 914,-72 1000,-72 1000,-72 1006,-72 1012,-78 1012,-84 1012,-84 1012,-96 1012,-96 1012,-102 1006,-108 1000,-108"/>
<text text-anchor="middle" x="957" y="-87.5" font-family="sans" font-size="10.00">structural_contacts</text>
</g>
<!-- 14&#45;&gt;0 -->
<g id="edge12" class="edge"><title>14&#45;&gt;0</title>
<path fill="none" stroke="grey" stroke-width="2" d="M901.743,-74.8857C897.106,-73.8537 892.48,-72.8759 888,-72 780.923,-51.065 654.645,-34.4674 582.486,-25.7421"/>
<polygon fill="grey" stroke="grey" stroke-width="2" points="582.587,-22.2291 572.241,-24.5122 581.753,-29.1792 582.587,-22.2291"/>
</g>
<!-- 15&#45;&gt;0 -->
<g id="edge4" class="edge"><title>15&#45;&gt;0</title>
<path fill="none" stroke="grey" stroke-width="2" d="M826.604,-215.902C813.153,-182.454 778.599,-108.459 724,-72 681.5,-43.6205 624.469,-30.4153 582.183,-24.2835"/>
<polygon fill="grey" stroke="grey" stroke-width="2" points="582.42,-20.7837 572.04,-22.9064 581.479,-27.7201 582.42,-20.7837"/>
</g>
<!-- 16&#45;&gt;3 -->
<g id="edge16" class="edge"><title>16&#45;&gt;3</title>
<path fill="none" stroke="grey" stroke-width="2" d="M239,-503.697C239,-495.983 239,-486.712 239,-478.112"/>
<polygon fill="grey" stroke="grey" stroke-width="2" points="242.5,-478.104 239,-468.104 235.5,-478.104 242.5,-478.104"/>
</g>
<!-- 17 -->
<g id="node18" class="node"><title>17</title>
<path fill="none" stroke="#d8a456" stroke-width="2" d="M441,-468C441,-468 355,-468 355,-468 349,-468 343,-462 343,-456 343,-456 343,-444 343,-444 343,-438 349,-432 355,-432 355,-432 441,-432 441,-432 447,-432 453,-438 453,-444 453,-444 453,-456 453,-456 453,-462 447,-468 441,-468"/>
<text text-anchor="middle" x="398" y="-447.5" font-family="sans" font-size="10.00">get_mut_bind_expr</text>
</g>
<!-- 17&#45;&gt;5 -->
<g id="edge22" class="edge"><title>17&#45;&gt;5</title>
<path fill="none" stroke="grey" stroke-width="2" d="M436.407,-431.876C457.869,-422.307 484.798,-410.3 507.568,-400.148"/>
<polygon fill="grey" stroke="grey" stroke-width="2" points="509.01,-403.337 516.718,-396.068 506.16,-396.944 509.01,-403.337"/>
</g>
<!-- 17&#45;&gt;8 -->
<g id="edge26" class="edge"><title>17&#45;&gt;8</title>
<path fill="none" stroke="grey" stroke-width="2" d="M397.737,-431.919C397.584,-392.825 399.751,-294.187 423,-216 425.694,-206.938 429.915,-197.58 434.225,-189.296"/>
<polygon fill="grey" stroke="grey" stroke-width="2" points="437.323,-190.925 439.053,-180.473 431.182,-187.565 437.323,-190.925"/>
</g>
<!-- 18 -->
<g id="node19" class="node"><title>18</title>
<path fill="none" stroke="#56d8c9" stroke-width="2" d="M681.5,-468C681.5,-468 606.5,-468 606.5,-468 600.5,-468 594.5,-462 594.5,-456 594.5,-456 594.5,-444 594.5,-444 594.5,-438 600.5,-432 606.5,-432 606.5,-432 681.5,-432 681.5,-432 687.5,-432 693.5,-438 693.5,-444 693.5,-444 693.5,-456 693.5,-456 693.5,-462 687.5,-468 681.5,-468"/>
<text text-anchor="middle" x="644" y="-447.5" font-family="sans" font-size="10.00">get_variant_expr</text>
</g>
<!-- 18&#45;&gt;5 -->
<g id="edge21" class="edge"><title>18&#45;&gt;5</title>
<path fill="none" stroke="grey" stroke-width="2" d="M622,-431.697C610.791,-422.881 596.998,-412.032 584.846,-402.474"/>
<polygon fill="grey" stroke="grey" stroke-width="2" points="586.771,-399.535 576.747,-396.104 582.443,-405.038 586.771,-399.535"/>
</g>
<!-- 19 -->
<g id="node20" class="node"><title>19</title>
<path fill="none" stroke="#56d8a9" stroke-width="2" d="M564,-468C564,-468 490,-468 490,-468 484,-468 478,-462 478,-456 478,-456 478,-444 478,-444 478,-438 484,-432 490,-432 490,-432 564,-432 564,-432 570,-432 576,-438 576,-444 576,-444 576,-456 576,-456 576,-462 570,-468 564,-468"/>
<text text-anchor="middle" x="527" y="-447.5" font-family="sans" font-size="10.00">get_variant_bind</text>
</g>
<!-- 19&#45;&gt;5 -->
<g id="edge19" class="edge"><title>19&#45;&gt;5</title>
<path fill="none" stroke="grey" stroke-width="2" d="M533.921,-431.697C537.075,-423.813 540.878,-414.304 544.381,-405.546"/>
<polygon fill="grey" stroke="grey" stroke-width="2" points="547.694,-406.689 548.158,-396.104 541.195,-404.089 547.694,-406.689"/>
</g>
</g>
</svg>
